<mxfile host="app.diagrams.net" modified="2023-05-24T15:23:42.520Z" agent="Mozilla/5.0 (Windows NT 10.0; Win64; x64) AppleWebKit/537.36 (KHTML, like Gecko) Chrome/109.0.0.0 Safari/537.36" etag="Pb-qOYwhMZzSBXqUDCIM" version="21.3.2" type="device" pages="2">
  <diagram id="ju0e1d7ojQE5wWnMmr8I" name="DESCRIPTOR">
    <mxGraphModel dx="2389" dy="758" grid="1" gridSize="10" guides="1" tooltips="1" connect="1" arrows="1" fold="1" page="1" pageScale="1" pageWidth="827" pageHeight="1169" math="0" shadow="0">
      <root>
        <mxCell id="0" />
        <mxCell id="1" parent="0" />
        <mxCell id="kySe_BjjY2lRiIn_t0Bj-19" style="edgeStyle=orthogonalEdgeStyle;rounded=0;orthogonalLoop=1;jettySize=auto;html=1;exitX=0;exitY=0;exitDx=0;exitDy=0;entryX=0;entryY=0.25;entryDx=0;entryDy=0;fontSize=15;endArrow=none;endFill=0;" parent="1" source="kySe_BjjY2lRiIn_t0Bj-1" edge="1">
          <mxGeometry relative="1" as="geometry">
            <Array as="points">
              <mxPoint x="150" y="170" />
              <mxPoint x="230" y="170" />
              <mxPoint x="230" y="205" />
            </Array>
            <mxPoint x="349" y="205" as="targetPoint" />
          </mxGeometry>
        </mxCell>
        <mxCell id="kySe_BjjY2lRiIn_t0Bj-1" value="" style="rounded=0;whiteSpace=wrap;html=1;fillColor=#ffe6cc;strokeColor=#d79b00;" parent="1" vertex="1">
          <mxGeometry x="110" y="107" width="560" height="563" as="geometry" />
        </mxCell>
        <mxCell id="kySe_BjjY2lRiIn_t0Bj-2" value="&lt;font style=&quot;font-size: 21px;&quot;&gt;Descriptor&lt;/font&gt;" style="text;html=1;align=center;verticalAlign=middle;resizable=0;points=[];autosize=1;strokeColor=none;fillColor=none;" parent="1" vertex="1">
          <mxGeometry x="354" y="67" width="120" height="40" as="geometry" />
        </mxCell>
        <mxCell id="uNVbDu8NS00YlIagcx1Y-1" style="edgeStyle=orthogonalEdgeStyle;rounded=0;orthogonalLoop=1;jettySize=auto;html=1;exitX=1;exitY=0.25;exitDx=0;exitDy=0;endArrow=none;endFill=0;" parent="1" source="uNVbDu8NS00YlIagcx1Y-26" edge="1">
          <mxGeometry relative="1" as="geometry">
            <mxPoint x="630" y="280" as="targetPoint" />
            <mxPoint x="469" y="205" as="sourcePoint" />
            <Array as="points">
              <mxPoint x="469" y="170" />
              <mxPoint x="630" y="170" />
            </Array>
          </mxGeometry>
        </mxCell>
        <mxCell id="uNVbDu8NS00YlIagcx1Y-2" style="edgeStyle=orthogonalEdgeStyle;rounded=0;orthogonalLoop=1;jettySize=auto;html=1;exitX=1;exitY=0.25;exitDx=0;exitDy=0;endArrow=none;endFill=0;" parent="1" edge="1">
          <mxGeometry relative="1" as="geometry">
            <mxPoint x="630" y="330" as="targetPoint" />
            <mxPoint x="469" y="275" as="sourcePoint" />
            <Array as="points">
              <mxPoint x="630" y="275" />
              <mxPoint x="630" y="320" />
            </Array>
          </mxGeometry>
        </mxCell>
        <mxCell id="uNVbDu8NS00YlIagcx1Y-3" style="edgeStyle=orthogonalEdgeStyle;rounded=0;orthogonalLoop=1;jettySize=auto;html=1;exitX=1;exitY=0.25;exitDx=0;exitDy=0;endArrow=none;endFill=0;" parent="1" source="kySe_BjjY2lRiIn_t0Bj-5" edge="1">
          <mxGeometry relative="1" as="geometry">
            <mxPoint x="630" y="310" as="targetPoint" />
            <Array as="points">
              <mxPoint x="630" y="367" />
            </Array>
          </mxGeometry>
        </mxCell>
        <mxCell id="K-WuParg0IYxGqL2u1y5-22" style="edgeStyle=orthogonalEdgeStyle;rounded=0;orthogonalLoop=1;jettySize=auto;html=1;exitX=0;exitY=0.75;exitDx=0;exitDy=0;startArrow=none;startFill=0;endArrow=classic;endFill=1;strokeColor=#9673a6;strokeWidth=1;entryX=0;entryY=0.75;entryDx=0;entryDy=0;fillColor=#e1d5e7;" parent="1" target="kySe_BjjY2lRiIn_t0Bj-5" edge="1">
          <mxGeometry relative="1" as="geometry">
            <mxPoint x="160" y="397" as="sourcePoint" />
          </mxGeometry>
        </mxCell>
        <mxCell id="kySe_BjjY2lRiIn_t0Bj-5" value="BytesToSendReg" style="rounded=0;whiteSpace=wrap;html=1;fontSize=15;fillColor=#fa6800;fontColor=#000000;strokeColor=#C73500;" parent="1" vertex="1">
          <mxGeometry x="349" y="352" width="120" height="60" as="geometry" />
        </mxCell>
        <mxCell id="uNVbDu8NS00YlIagcx1Y-4" style="edgeStyle=orthogonalEdgeStyle;rounded=0;orthogonalLoop=1;jettySize=auto;html=1;startArrow=none;startFill=1;endArrow=none;endFill=0;" parent="1" edge="1">
          <mxGeometry relative="1" as="geometry">
            <mxPoint x="680" y="477" as="targetPoint" />
            <mxPoint x="680" y="478" as="sourcePoint" />
            <Array as="points">
              <mxPoint x="680" y="477" />
            </Array>
          </mxGeometry>
        </mxCell>
        <mxCell id="9qAQNfw4xPBkWBZW2QL5-20" style="edgeStyle=orthogonalEdgeStyle;rounded=0;orthogonalLoop=1;jettySize=auto;html=1;exitX=1;exitY=0.25;exitDx=0;exitDy=0;fontSize=15;startArrow=none;startFill=0;endArrow=none;endFill=0;strokeColor=#000000;" parent="1" source="kySe_BjjY2lRiIn_t0Bj-6" edge="1">
          <mxGeometry relative="1" as="geometry">
            <mxPoint x="630" y="320" as="targetPoint" />
            <Array as="points">
              <mxPoint x="630" y="465" />
              <mxPoint x="630" y="320" />
            </Array>
          </mxGeometry>
        </mxCell>
        <mxCell id="kySe_BjjY2lRiIn_t0Bj-6" value="SentBytesReg" style="rounded=0;whiteSpace=wrap;html=1;fontSize=15;fillColor=#fa6800;fontColor=#000000;strokeColor=#C73500;" parent="1" vertex="1">
          <mxGeometry x="349" y="450" width="120" height="60" as="geometry" />
        </mxCell>
        <mxCell id="kySe_BjjY2lRiIn_t0Bj-8" value="[7:0]WE" style="text;html=1;align=center;verticalAlign=middle;resizable=0;points=[];autosize=1;strokeColor=none;fillColor=none;fontSize=15;" parent="1" vertex="1">
          <mxGeometry x="-10" y="276" width="80" height="30" as="geometry" />
        </mxCell>
        <mxCell id="K-WuParg0IYxGqL2u1y5-6" style="edgeStyle=orthogonalEdgeStyle;rounded=0;orthogonalLoop=1;jettySize=auto;html=1;strokeColor=#9673a6;strokeWidth=1;entryX=0;entryY=0.75;entryDx=0;entryDy=0;fillColor=#e1d5e7;" parent="1" target="uNVbDu8NS00YlIagcx1Y-26" edge="1">
          <mxGeometry relative="1" as="geometry">
            <mxPoint x="160" y="450" as="sourcePoint" />
            <Array as="points">
              <mxPoint x="160" y="440" />
              <mxPoint x="160" y="205" />
            </Array>
          </mxGeometry>
        </mxCell>
        <mxCell id="uNVbDu8NS00YlIagcx1Y-26" value="SrcAddrReg" style="rounded=0;whiteSpace=wrap;html=1;fontSize=15;fillColor=#fa6800;fontColor=#000000;strokeColor=#C73500;" parent="1" vertex="1">
          <mxGeometry x="349" y="160" width="120" height="60" as="geometry" />
        </mxCell>
        <mxCell id="9qAQNfw4xPBkWBZW2QL5-4" style="edgeStyle=orthogonalEdgeStyle;rounded=0;orthogonalLoop=1;jettySize=auto;html=1;exitX=0;exitY=0.5;exitDx=0;exitDy=0;startArrow=none;startFill=0;endArrow=none;endFill=0;strokeColor=#82b366;fillColor=#d5e8d4;strokeWidth=2;" parent="1" target="kySe_BjjY2lRiIn_t0Bj-8" edge="1">
          <mxGeometry relative="1" as="geometry">
            <mxPoint x="70" y="291" as="targetPoint" />
            <mxPoint x="140" y="291" as="sourcePoint" />
          </mxGeometry>
        </mxCell>
        <mxCell id="9qAQNfw4xPBkWBZW2QL5-6" style="edgeStyle=orthogonalEdgeStyle;rounded=0;orthogonalLoop=1;jettySize=auto;html=1;startArrow=none;startFill=0;endArrow=classic;endFill=1;strokeColor=#82b366;fillColor=#d5e8d4;entryX=0;entryY=0.25;entryDx=0;entryDy=0;" parent="1" target="uNVbDu8NS00YlIagcx1Y-26" edge="1">
          <mxGeometry relative="1" as="geometry">
            <mxPoint x="314" y="160" as="targetPoint" />
            <Array as="points">
              <mxPoint x="190" y="290" />
              <mxPoint x="190" y="175" />
            </Array>
            <mxPoint x="140" y="290" as="sourcePoint" />
          </mxGeometry>
        </mxCell>
        <mxCell id="9qAQNfw4xPBkWBZW2QL5-7" style="edgeStyle=orthogonalEdgeStyle;rounded=0;orthogonalLoop=1;jettySize=auto;html=1;startArrow=none;startFill=0;endArrow=classic;endFill=1;strokeColor=#82b366;fillColor=#d5e8d4;entryX=0;entryY=0.25;entryDx=0;entryDy=0;" parent="1" target="9qAQNfw4xPBkWBZW2QL5-11" edge="1">
          <mxGeometry relative="1" as="geometry">
            <mxPoint x="314" y="259" as="targetPoint" />
            <Array as="points">
              <mxPoint x="190" y="274" />
            </Array>
            <mxPoint x="190" y="290" as="sourcePoint" />
          </mxGeometry>
        </mxCell>
        <mxCell id="9qAQNfw4xPBkWBZW2QL5-8" style="edgeStyle=orthogonalEdgeStyle;rounded=0;orthogonalLoop=1;jettySize=auto;html=1;startArrow=none;startFill=0;endArrow=classic;endFill=1;strokeColor=#82b366;fillColor=#d5e8d4;entryX=0;entryY=0.25;entryDx=0;entryDy=0;" parent="1" target="kySe_BjjY2lRiIn_t0Bj-5" edge="1">
          <mxGeometry relative="1" as="geometry">
            <mxPoint x="314" y="351" as="targetPoint" />
            <Array as="points">
              <mxPoint x="190" y="290" />
              <mxPoint x="190" y="367" />
            </Array>
            <mxPoint x="140" y="290" as="sourcePoint" />
          </mxGeometry>
        </mxCell>
        <mxCell id="9qAQNfw4xPBkWBZW2QL5-9" style="edgeStyle=orthogonalEdgeStyle;rounded=0;orthogonalLoop=1;jettySize=auto;html=1;startArrow=none;startFill=0;endArrow=classic;endFill=1;strokeColor=#82b366;fillColor=#d5e8d4;entryX=0;entryY=0.25;entryDx=0;entryDy=0;" parent="1" target="kySe_BjjY2lRiIn_t0Bj-6" edge="1">
          <mxGeometry relative="1" as="geometry">
            <mxPoint x="315.1800000000003" y="453.74" as="targetPoint" />
            <Array as="points">
              <mxPoint x="190" y="290" />
              <mxPoint x="190" y="465" />
            </Array>
            <mxPoint x="140" y="290" as="sourcePoint" />
          </mxGeometry>
        </mxCell>
        <mxCell id="9qAQNfw4xPBkWBZW2QL5-12" style="edgeStyle=orthogonalEdgeStyle;rounded=0;orthogonalLoop=1;jettySize=auto;html=1;startArrow=none;startFill=0;endArrow=none;endFill=0;strokeColor=#9673a6;fillColor=#e1d5e7;strokeWidth=4;" parent="1" target="9qAQNfw4xPBkWBZW2QL5-89" edge="1">
          <mxGeometry relative="1" as="geometry">
            <mxPoint x="60" y="439" as="targetPoint" />
            <mxPoint x="140" y="440" as="sourcePoint" />
            <Array as="points">
              <mxPoint x="160" y="440" />
              <mxPoint x="160" y="440" />
            </Array>
          </mxGeometry>
        </mxCell>
        <mxCell id="9qAQNfw4xPBkWBZW2QL5-13" style="edgeStyle=orthogonalEdgeStyle;rounded=0;orthogonalLoop=1;jettySize=auto;html=1;startArrow=classic;startFill=1;endArrow=none;endFill=0;strokeColor=#9673a6;fillColor=#e1d5e7;exitX=0;exitY=0.75;exitDx=0;exitDy=0;" parent="1" source="9qAQNfw4xPBkWBZW2QL5-11" edge="1">
          <mxGeometry relative="1" as="geometry">
            <mxPoint x="160" y="440" as="targetPoint" />
            <mxPoint x="315.52" y="305.56000000000006" as="sourcePoint" />
            <Array as="points">
              <mxPoint x="160" y="304" />
              <mxPoint x="160" y="440" />
            </Array>
          </mxGeometry>
        </mxCell>
        <mxCell id="9qAQNfw4xPBkWBZW2QL5-11" value="DstAddrReg" style="rounded=0;whiteSpace=wrap;html=1;fontSize=15;fillColor=#fa6800;fontColor=#000000;strokeColor=#C73500;" parent="1" vertex="1">
          <mxGeometry x="349" y="259" width="120" height="60" as="geometry" />
        </mxCell>
        <mxCell id="9qAQNfw4xPBkWBZW2QL5-26" style="edgeStyle=orthogonalEdgeStyle;rounded=0;orthogonalLoop=1;jettySize=auto;html=1;exitX=0;exitY=0.75;exitDx=0;exitDy=0;fontSize=15;startArrow=classic;startFill=1;endArrow=none;endFill=0;strokeColor=#9673a6;fillColor=#e1d5e7;" parent="1" source="kySe_BjjY2lRiIn_t0Bj-6" edge="1">
          <mxGeometry relative="1" as="geometry">
            <mxPoint x="160" y="440" as="targetPoint" />
            <mxPoint x="209.39339828220182" y="486.8933982822018" as="sourcePoint" />
            <Array as="points">
              <mxPoint x="160" y="495" />
              <mxPoint x="160" y="440" />
            </Array>
          </mxGeometry>
        </mxCell>
        <mxCell id="9qAQNfw4xPBkWBZW2QL5-29" style="edgeStyle=orthogonalEdgeStyle;rounded=0;orthogonalLoop=1;jettySize=auto;html=1;fontSize=15;startArrow=none;startFill=0;endArrow=classic;endFill=1;strokeColor=#000000;strokeWidth=4;" parent="1" target="9qAQNfw4xPBkWBZW2QL5-31" edge="1">
          <mxGeometry relative="1" as="geometry">
            <mxPoint x="730" y="372.5" as="targetPoint" />
            <mxPoint x="630" y="372" as="sourcePoint" />
          </mxGeometry>
        </mxCell>
        <mxCell id="9qAQNfw4xPBkWBZW2QL5-31" value="[255:0]DescDataOut" style="text;html=1;align=center;verticalAlign=middle;resizable=0;points=[];autosize=1;strokeColor=none;fillColor=none;fontSize=15;" parent="1" vertex="1">
          <mxGeometry x="720" y="357" width="160" height="30" as="geometry" />
        </mxCell>
        <mxCell id="9qAQNfw4xPBkWBZW2QL5-89" value="&lt;span style=&quot;font-size: 15px;&quot;&gt;[255:0]DescDataIn&lt;/span&gt;" style="text;html=1;align=center;verticalAlign=middle;resizable=0;points=[];autosize=1;strokeColor=none;fillColor=none;" parent="1" vertex="1">
          <mxGeometry x="-70" y="425" width="150" height="30" as="geometry" />
        </mxCell>
        <mxCell id="iKpqsLF4HGMwd7_e1rLZ-1" value="&lt;span style=&quot;font-size: 15px;&quot;&gt;[31:0]DescDataIOut&lt;/span&gt;" style="text;html=1;align=center;verticalAlign=middle;resizable=0;points=[];autosize=1;strokeColor=none;fillColor=none;" parent="1" vertex="1">
          <mxGeometry x="477" y="146" width="160" height="30" as="geometry" />
        </mxCell>
        <mxCell id="iKpqsLF4HGMwd7_e1rLZ-6" value="&lt;span style=&quot;font-size: 15px;&quot;&gt;[63:32]DescDataOut&lt;/span&gt;" style="text;html=1;align=center;verticalAlign=middle;resizable=0;points=[];autosize=1;strokeColor=none;fillColor=none;" parent="1" vertex="1">
          <mxGeometry x="477" y="250" width="160" height="30" as="geometry" />
        </mxCell>
        <mxCell id="iKpqsLF4HGMwd7_e1rLZ-7" value="&lt;span style=&quot;font-size: 15px;&quot;&gt;[95:64]DescDataOut&lt;/span&gt;" style="text;html=1;align=center;verticalAlign=middle;resizable=0;points=[];autosize=1;strokeColor=none;fillColor=none;" parent="1" vertex="1">
          <mxGeometry x="477" y="341" width="160" height="30" as="geometry" />
        </mxCell>
        <mxCell id="K-WuParg0IYxGqL2u1y5-2" style="edgeStyle=orthogonalEdgeStyle;rounded=0;orthogonalLoop=1;jettySize=auto;html=1;entryX=0;entryY=0.25;entryDx=0;entryDy=0;strokeColor=#00CC00;" parent="1" target="K-WuParg0IYxGqL2u1y5-1" edge="1">
          <mxGeometry relative="1" as="geometry">
            <mxPoint x="190" y="460" as="sourcePoint" />
            <Array as="points">
              <mxPoint x="190" y="460" />
              <mxPoint x="190" y="565" />
            </Array>
          </mxGeometry>
        </mxCell>
        <mxCell id="K-WuParg0IYxGqL2u1y5-3" style="edgeStyle=orthogonalEdgeStyle;rounded=0;orthogonalLoop=1;jettySize=auto;html=1;strokeColor=#9673a6;entryX=0;entryY=0.75;entryDx=0;entryDy=0;fillColor=#e1d5e7;" parent="1" target="K-WuParg0IYxGqL2u1y5-1" edge="1">
          <mxGeometry relative="1" as="geometry">
            <mxPoint x="160" y="480" as="sourcePoint" />
            <Array as="points">
              <mxPoint x="160" y="480" />
              <mxPoint x="160" y="595" />
            </Array>
          </mxGeometry>
        </mxCell>
        <mxCell id="K-WuParg0IYxGqL2u1y5-7" style="edgeStyle=orthogonalEdgeStyle;rounded=0;orthogonalLoop=1;jettySize=auto;html=1;exitX=1;exitY=0.5;exitDx=0;exitDy=0;startArrow=none;startFill=0;strokeColor=#000000;strokeWidth=1;endArrow=none;endFill=0;" parent="1" source="K-WuParg0IYxGqL2u1y5-1" edge="1">
          <mxGeometry relative="1" as="geometry">
            <mxPoint x="630" y="430" as="targetPoint" />
            <Array as="points">
              <mxPoint x="630" y="580" />
              <mxPoint x="630" y="430" />
            </Array>
          </mxGeometry>
        </mxCell>
        <mxCell id="K-WuParg0IYxGqL2u1y5-1" value="StatusReg" style="rounded=0;whiteSpace=wrap;html=1;fontSize=15;fillColor=#fa6800;fontColor=#000000;strokeColor=#C73500;" parent="1" vertex="1">
          <mxGeometry x="349" y="550" width="120" height="60" as="geometry" />
        </mxCell>
        <mxCell id="K-WuParg0IYxGqL2u1y5-8" value="&lt;span style=&quot;font-size: 15px;&quot;&gt;[127:96]DescDataOut&lt;/span&gt;" style="text;html=1;align=center;verticalAlign=middle;resizable=0;points=[];autosize=1;strokeColor=none;fillColor=none;" parent="1" vertex="1">
          <mxGeometry x="467" y="440" width="170" height="30" as="geometry" />
        </mxCell>
        <mxCell id="K-WuParg0IYxGqL2u1y5-9" value="WE[0]" style="text;html=1;align=center;verticalAlign=middle;resizable=0;points=[];autosize=1;strokeColor=none;fillColor=none;" parent="1" vertex="1">
          <mxGeometry x="282" y="146" width="60" height="30" as="geometry" />
        </mxCell>
        <mxCell id="K-WuParg0IYxGqL2u1y5-10" value="WE[1]" style="text;html=1;align=center;verticalAlign=middle;resizable=0;points=[];autosize=1;strokeColor=none;fillColor=none;" parent="1" vertex="1">
          <mxGeometry x="282" y="246" width="60" height="30" as="geometry" />
        </mxCell>
        <mxCell id="K-WuParg0IYxGqL2u1y5-11" value="WE[2]" style="text;html=1;align=center;verticalAlign=middle;resizable=0;points=[];autosize=1;strokeColor=none;fillColor=none;" parent="1" vertex="1">
          <mxGeometry x="282" y="336" width="60" height="30" as="geometry" />
        </mxCell>
        <mxCell id="K-WuParg0IYxGqL2u1y5-12" value="WE[3]" style="text;html=1;align=center;verticalAlign=middle;resizable=0;points=[];autosize=1;strokeColor=none;fillColor=none;" parent="1" vertex="1">
          <mxGeometry x="282" y="440" width="60" height="30" as="geometry" />
        </mxCell>
        <mxCell id="K-WuParg0IYxGqL2u1y5-13" value="WE[4]" style="text;html=1;align=center;verticalAlign=middle;resizable=0;points=[];autosize=1;strokeColor=none;fillColor=none;" parent="1" vertex="1">
          <mxGeometry x="282" y="536" width="60" height="30" as="geometry" />
        </mxCell>
        <mxCell id="K-WuParg0IYxGqL2u1y5-18" value="&lt;span style=&quot;font-size: 15px;&quot;&gt;[31:0]DescDataIn&lt;/span&gt;" style="text;html=1;align=center;verticalAlign=middle;resizable=0;points=[];autosize=1;strokeColor=none;fillColor=none;" parent="1" vertex="1">
          <mxGeometry x="202" y="180" width="140" height="30" as="geometry" />
        </mxCell>
        <mxCell id="K-WuParg0IYxGqL2u1y5-19" value="&lt;span style=&quot;font-size: 15px;&quot;&gt;[63:32]DescDataIn&lt;/span&gt;" style="text;html=1;align=center;verticalAlign=middle;resizable=0;points=[];autosize=1;strokeColor=none;fillColor=none;" parent="1" vertex="1">
          <mxGeometry x="192" y="279" width="150" height="30" as="geometry" />
        </mxCell>
        <mxCell id="K-WuParg0IYxGqL2u1y5-20" value="&lt;span style=&quot;font-size: 15px;&quot;&gt;[95:64]DescDataIn&lt;/span&gt;" style="text;html=1;align=center;verticalAlign=middle;resizable=0;points=[];autosize=1;strokeColor=none;fillColor=none;" parent="1" vertex="1">
          <mxGeometry x="192" y="371" width="150" height="30" as="geometry" />
        </mxCell>
        <mxCell id="K-WuParg0IYxGqL2u1y5-21" value="&lt;span style=&quot;font-size: 15px;&quot;&gt;[127:96]DescDataIn&lt;/span&gt;" style="text;html=1;align=center;verticalAlign=middle;resizable=0;points=[];autosize=1;strokeColor=none;fillColor=none;" parent="1" vertex="1">
          <mxGeometry x="189" y="470" width="160" height="30" as="geometry" />
        </mxCell>
        <mxCell id="K-WuParg0IYxGqL2u1y5-23" value="&lt;span style=&quot;font-size: 15px;&quot;&gt;[159:128]DescDataIn&lt;/span&gt;" style="text;html=1;align=center;verticalAlign=middle;resizable=0;points=[];autosize=1;strokeColor=none;fillColor=none;" parent="1" vertex="1">
          <mxGeometry x="190" y="570" width="160" height="30" as="geometry" />
        </mxCell>
        <mxCell id="K-WuParg0IYxGqL2u1y5-25" value="&lt;span style=&quot;font-size: 15px;&quot;&gt;[159:128]DescDataOut&lt;/span&gt;" style="text;html=1;align=center;verticalAlign=middle;resizable=0;points=[];autosize=1;strokeColor=none;fillColor=none;" parent="1" vertex="1">
          <mxGeometry x="457" y="553" width="180" height="30" as="geometry" />
        </mxCell>
      </root>
    </mxGraphModel>
  </diagram>
  <diagram id="ug63bnc6lbRe-gnaflJY" name="BRAM">
    <mxGraphModel dx="2389" dy="758" grid="1" gridSize="10" guides="1" tooltips="1" connect="1" arrows="1" fold="1" page="1" pageScale="1" pageWidth="827" pageHeight="1169" math="0" shadow="0">
      <root>
        <mxCell id="0" />
        <mxCell id="1" parent="0" />
        <mxCell id="LXfvspzgefDCmYC8P1NW-67" style="edgeStyle=orthogonalEdgeStyle;rounded=0;orthogonalLoop=1;jettySize=auto;html=1;fontSize=18;strokeWidth=3;" parent="1" source="LXfvspzgefDCmYC8P1NW-79" target="XwjPzvXQHUQgldl_u9t0-1" edge="1">
          <mxGeometry relative="1" as="geometry">
            <mxPoint x="10" y="372" as="targetPoint" />
            <mxPoint x="-140" y="372" as="sourcePoint" />
            <Array as="points">
              <mxPoint x="-20" y="370" />
              <mxPoint x="-20" y="370" />
            </Array>
          </mxGeometry>
        </mxCell>
        <mxCell id="XwjPzvXQHUQgldl_u9t0-1" value="" style="rounded=0;whiteSpace=wrap;html=1;fontSize=21;fillColor=#ffcc99;strokeColor=#36393d;" parent="1" vertex="1">
          <mxGeometry x="10" y="280" width="400" height="230" as="geometry" />
        </mxCell>
        <mxCell id="XwjPzvXQHUQgldl_u9t0-2" value="&lt;font style=&quot;font-size: 24px;&quot;&gt;DescBRAM&lt;/font&gt;" style="text;html=1;align=center;verticalAlign=middle;resizable=0;points=[];autosize=1;strokeColor=none;fillColor=none;fontSize=21;" parent="1" vertex="1">
          <mxGeometry x="150" y="240" width="150" height="40" as="geometry" />
        </mxCell>
        <mxCell id="LXfvspzgefDCmYC8P1NW-3" value="" style="endArrow=none;dashed=1;html=1;dashPattern=1 3;strokeWidth=2;rounded=0;fontSize=24;" parent="1" edge="1">
          <mxGeometry width="50" height="50" relative="1" as="geometry">
            <mxPoint x="210" y="460" as="sourcePoint" />
            <mxPoint x="210" y="400" as="targetPoint" />
          </mxGeometry>
        </mxCell>
        <mxCell id="LXfvspzgefDCmYC8P1NW-28" value="&lt;font style=&quot;font-size: 13px;&quot;&gt;SrcAddr&lt;/font&gt;" style="rounded=0;whiteSpace=wrap;html=1;fontSize=24;fillColor=#ffe6cc;strokeColor=#d79b00;" parent="1" vertex="1">
          <mxGeometry x="360" y="280" width="50" height="30" as="geometry" />
        </mxCell>
        <mxCell id="LXfvspzgefDCmYC8P1NW-29" value="&lt;font style=&quot;font-size: 13px;&quot;&gt;DstAddr&lt;/font&gt;" style="rounded=0;whiteSpace=wrap;html=1;fontSize=24;fillColor=#ffe6cc;strokeColor=#d79b00;" parent="1" vertex="1">
          <mxGeometry x="310" y="280" width="50" height="30" as="geometry" />
        </mxCell>
        <mxCell id="LXfvspzgefDCmYC8P1NW-30" value="&lt;font style=&quot;font-size: 13px;&quot;&gt;BTS&lt;/font&gt;" style="rounded=0;whiteSpace=wrap;html=1;fontSize=24;fillColor=#ffe6cc;strokeColor=#d79b00;" parent="1" vertex="1">
          <mxGeometry x="260" y="280" width="50" height="30" as="geometry" />
        </mxCell>
        <mxCell id="LXfvspzgefDCmYC8P1NW-31" value="&lt;font style=&quot;font-size: 13px;&quot;&gt;SB&lt;/font&gt;" style="rounded=0;whiteSpace=wrap;html=1;fontSize=24;fillColor=#ffe6cc;strokeColor=#d79b00;" parent="1" vertex="1">
          <mxGeometry x="210" y="280" width="50" height="30" as="geometry" />
        </mxCell>
        <mxCell id="LXfvspzgefDCmYC8P1NW-32" value="&lt;font style=&quot;font-size: 13px;&quot;&gt;Status&lt;/font&gt;" style="rounded=0;whiteSpace=wrap;html=1;fontSize=24;fillColor=#ffe6cc;strokeColor=#d79b00;" parent="1" vertex="1">
          <mxGeometry x="160" y="280" width="50" height="30" as="geometry" />
        </mxCell>
        <mxCell id="LXfvspzgefDCmYC8P1NW-33" value="&lt;font style=&quot;font-size: 13px;&quot;&gt;Rsrved&lt;/font&gt;" style="rounded=0;whiteSpace=wrap;html=1;fontSize=24;fillColor=#ffe6cc;strokeColor=#d79b00;" parent="1" vertex="1">
          <mxGeometry x="10" y="280" width="50" height="30" as="geometry" />
        </mxCell>
        <mxCell id="LXfvspzgefDCmYC8P1NW-34" value="&lt;font style=&quot;font-size: 13px;&quot;&gt;Rsrved&lt;/font&gt;" style="rounded=0;whiteSpace=wrap;html=1;fontSize=24;fillColor=#ffe6cc;strokeColor=#d79b00;" parent="1" vertex="1">
          <mxGeometry x="60" y="280" width="50" height="30" as="geometry" />
        </mxCell>
        <mxCell id="LXfvspzgefDCmYC8P1NW-35" value="&lt;font style=&quot;font-size: 13px;&quot;&gt;Rsrved&lt;/font&gt;" style="rounded=0;whiteSpace=wrap;html=1;fontSize=24;fillColor=#ffe6cc;strokeColor=#d79b00;" parent="1" vertex="1">
          <mxGeometry x="110" y="280" width="50" height="30" as="geometry" />
        </mxCell>
        <mxCell id="LXfvspzgefDCmYC8P1NW-36" value="&lt;font style=&quot;font-size: 13px;&quot;&gt;SrcAddr&lt;/font&gt;" style="rounded=0;whiteSpace=wrap;html=1;fontSize=24;fillColor=#ffe6cc;strokeColor=#d79b00;" parent="1" vertex="1">
          <mxGeometry x="360" y="310" width="50" height="30" as="geometry" />
        </mxCell>
        <mxCell id="LXfvspzgefDCmYC8P1NW-37" value="&lt;font style=&quot;font-size: 13px;&quot;&gt;DstAddr&lt;/font&gt;" style="rounded=0;whiteSpace=wrap;html=1;fontSize=24;fillColor=#ffe6cc;strokeColor=#d79b00;" parent="1" vertex="1">
          <mxGeometry x="310" y="310" width="50" height="30" as="geometry" />
        </mxCell>
        <mxCell id="LXfvspzgefDCmYC8P1NW-38" value="&lt;font style=&quot;font-size: 13px;&quot;&gt;BTS&lt;/font&gt;" style="rounded=0;whiteSpace=wrap;html=1;fontSize=24;fillColor=#ffe6cc;strokeColor=#d79b00;" parent="1" vertex="1">
          <mxGeometry x="260" y="310" width="50" height="30" as="geometry" />
        </mxCell>
        <mxCell id="LXfvspzgefDCmYC8P1NW-39" value="&lt;font style=&quot;font-size: 13px;&quot;&gt;SB&lt;/font&gt;" style="rounded=0;whiteSpace=wrap;html=1;fontSize=24;fillColor=#ffe6cc;strokeColor=#d79b00;" parent="1" vertex="1">
          <mxGeometry x="210" y="310" width="50" height="30" as="geometry" />
        </mxCell>
        <mxCell id="LXfvspzgefDCmYC8P1NW-40" value="&lt;font style=&quot;font-size: 13px;&quot;&gt;Status&lt;/font&gt;" style="rounded=0;whiteSpace=wrap;html=1;fontSize=24;fillColor=#ffe6cc;strokeColor=#d79b00;" parent="1" vertex="1">
          <mxGeometry x="160" y="310" width="50" height="30" as="geometry" />
        </mxCell>
        <mxCell id="LXfvspzgefDCmYC8P1NW-41" value="&lt;font style=&quot;font-size: 13px;&quot;&gt;Rsrved&lt;/font&gt;" style="rounded=0;whiteSpace=wrap;html=1;fontSize=24;fillColor=#ffe6cc;strokeColor=#d79b00;" parent="1" vertex="1">
          <mxGeometry x="10" y="310" width="50" height="30" as="geometry" />
        </mxCell>
        <mxCell id="LXfvspzgefDCmYC8P1NW-42" value="&lt;font style=&quot;font-size: 13px;&quot;&gt;Rsrved&lt;/font&gt;" style="rounded=0;whiteSpace=wrap;html=1;fontSize=24;fillColor=#ffe6cc;strokeColor=#d79b00;" parent="1" vertex="1">
          <mxGeometry x="60" y="310" width="50" height="30" as="geometry" />
        </mxCell>
        <mxCell id="LXfvspzgefDCmYC8P1NW-43" value="&lt;font style=&quot;font-size: 13px;&quot;&gt;Rsrved&lt;/font&gt;" style="rounded=0;whiteSpace=wrap;html=1;fontSize=24;fillColor=#ffe6cc;strokeColor=#d79b00;" parent="1" vertex="1">
          <mxGeometry x="110" y="310" width="50" height="30" as="geometry" />
        </mxCell>
        <mxCell id="LXfvspzgefDCmYC8P1NW-44" value="&lt;font style=&quot;font-size: 13px;&quot;&gt;SrcAddr&lt;/font&gt;" style="rounded=0;whiteSpace=wrap;html=1;fontSize=24;fillColor=#ffe6cc;strokeColor=#d79b00;" parent="1" vertex="1">
          <mxGeometry x="360" y="340" width="50" height="30" as="geometry" />
        </mxCell>
        <mxCell id="LXfvspzgefDCmYC8P1NW-45" value="&lt;font style=&quot;font-size: 13px;&quot;&gt;DstAddr&lt;/font&gt;" style="rounded=0;whiteSpace=wrap;html=1;fontSize=24;fillColor=#ffe6cc;strokeColor=#d79b00;" parent="1" vertex="1">
          <mxGeometry x="310" y="340" width="50" height="30" as="geometry" />
        </mxCell>
        <mxCell id="LXfvspzgefDCmYC8P1NW-46" value="&lt;font style=&quot;font-size: 13px;&quot;&gt;BTS&lt;/font&gt;" style="rounded=0;whiteSpace=wrap;html=1;fontSize=24;fillColor=#ffe6cc;strokeColor=#d79b00;" parent="1" vertex="1">
          <mxGeometry x="260" y="340" width="50" height="30" as="geometry" />
        </mxCell>
        <mxCell id="LXfvspzgefDCmYC8P1NW-47" value="&lt;font style=&quot;font-size: 13px;&quot;&gt;SB&lt;/font&gt;" style="rounded=0;whiteSpace=wrap;html=1;fontSize=24;fillColor=#ffe6cc;strokeColor=#d79b00;" parent="1" vertex="1">
          <mxGeometry x="210" y="340" width="50" height="30" as="geometry" />
        </mxCell>
        <mxCell id="LXfvspzgefDCmYC8P1NW-48" value="&lt;font style=&quot;font-size: 13px;&quot;&gt;Status&lt;/font&gt;" style="rounded=0;whiteSpace=wrap;html=1;fontSize=24;fillColor=#ffe6cc;strokeColor=#d79b00;" parent="1" vertex="1">
          <mxGeometry x="160" y="340" width="50" height="30" as="geometry" />
        </mxCell>
        <mxCell id="LXfvspzgefDCmYC8P1NW-49" value="&lt;font style=&quot;font-size: 13px;&quot;&gt;Rsrved&lt;/font&gt;" style="rounded=0;whiteSpace=wrap;html=1;fontSize=24;fillColor=#ffe6cc;strokeColor=#d79b00;" parent="1" vertex="1">
          <mxGeometry x="10" y="340" width="50" height="30" as="geometry" />
        </mxCell>
        <mxCell id="LXfvspzgefDCmYC8P1NW-50" value="&lt;font style=&quot;font-size: 13px;&quot;&gt;Rsrved&lt;/font&gt;" style="rounded=0;whiteSpace=wrap;html=1;fontSize=24;fillColor=#ffe6cc;strokeColor=#d79b00;" parent="1" vertex="1">
          <mxGeometry x="60" y="340" width="50" height="30" as="geometry" />
        </mxCell>
        <mxCell id="LXfvspzgefDCmYC8P1NW-51" value="&lt;font style=&quot;font-size: 13px;&quot;&gt;Rsrved&lt;/font&gt;" style="rounded=0;whiteSpace=wrap;html=1;fontSize=24;fillColor=#ffe6cc;strokeColor=#d79b00;" parent="1" vertex="1">
          <mxGeometry x="110" y="340" width="50" height="30" as="geometry" />
        </mxCell>
        <mxCell id="LXfvspzgefDCmYC8P1NW-52" value="&lt;font style=&quot;font-size: 13px;&quot;&gt;SrcAddr&lt;/font&gt;" style="rounded=0;whiteSpace=wrap;html=1;fontSize=24;fillColor=#ffe6cc;strokeColor=#d79b00;" parent="1" vertex="1">
          <mxGeometry x="360" y="480" width="50" height="30" as="geometry" />
        </mxCell>
        <mxCell id="LXfvspzgefDCmYC8P1NW-53" value="&lt;font style=&quot;font-size: 13px;&quot;&gt;DstAddr&lt;/font&gt;" style="rounded=0;whiteSpace=wrap;html=1;fontSize=24;fillColor=#ffe6cc;strokeColor=#d79b00;" parent="1" vertex="1">
          <mxGeometry x="310" y="480" width="50" height="30" as="geometry" />
        </mxCell>
        <mxCell id="LXfvspzgefDCmYC8P1NW-54" value="&lt;font style=&quot;font-size: 13px;&quot;&gt;BTS&lt;/font&gt;" style="rounded=0;whiteSpace=wrap;html=1;fontSize=24;fillColor=#ffe6cc;strokeColor=#d79b00;" parent="1" vertex="1">
          <mxGeometry x="260" y="480" width="50" height="30" as="geometry" />
        </mxCell>
        <mxCell id="LXfvspzgefDCmYC8P1NW-55" value="&lt;font style=&quot;font-size: 13px;&quot;&gt;SB&lt;/font&gt;" style="rounded=0;whiteSpace=wrap;html=1;fontSize=24;fillColor=#ffe6cc;strokeColor=#d79b00;" parent="1" vertex="1">
          <mxGeometry x="210" y="480" width="50" height="30" as="geometry" />
        </mxCell>
        <mxCell id="LXfvspzgefDCmYC8P1NW-56" value="&lt;font style=&quot;font-size: 13px;&quot;&gt;Status&lt;/font&gt;" style="rounded=0;whiteSpace=wrap;html=1;fontSize=24;fillColor=#ffe6cc;strokeColor=#d79b00;" parent="1" vertex="1">
          <mxGeometry x="160" y="480" width="50" height="30" as="geometry" />
        </mxCell>
        <mxCell id="LXfvspzgefDCmYC8P1NW-57" value="&lt;font style=&quot;font-size: 13px;&quot;&gt;Rsrved&lt;/font&gt;" style="rounded=0;whiteSpace=wrap;html=1;fontSize=24;fillColor=#ffe6cc;strokeColor=#d79b00;" parent="1" vertex="1">
          <mxGeometry x="10" y="480" width="50" height="30" as="geometry" />
        </mxCell>
        <mxCell id="LXfvspzgefDCmYC8P1NW-58" value="&lt;font style=&quot;font-size: 13px;&quot;&gt;Rsrved&lt;/font&gt;" style="rounded=0;whiteSpace=wrap;html=1;fontSize=24;fillColor=#ffe6cc;strokeColor=#d79b00;" parent="1" vertex="1">
          <mxGeometry x="60" y="480" width="50" height="30" as="geometry" />
        </mxCell>
        <mxCell id="LXfvspzgefDCmYC8P1NW-59" value="&lt;font style=&quot;font-size: 13px;&quot;&gt;Rsrved&lt;/font&gt;" style="rounded=0;whiteSpace=wrap;html=1;fontSize=24;fillColor=#ffe6cc;strokeColor=#d79b00;" parent="1" vertex="1">
          <mxGeometry x="110" y="480" width="50" height="30" as="geometry" />
        </mxCell>
        <mxCell id="LXfvspzgefDCmYC8P1NW-61" value="&lt;font style=&quot;font-size: 18px;&quot;&gt;Desc 0&lt;/font&gt;" style="text;html=1;align=center;verticalAlign=middle;resizable=0;points=[];autosize=1;strokeColor=none;fillColor=none;fontSize=13;" parent="1" vertex="1">
          <mxGeometry x="404" y="275" width="80" height="40" as="geometry" />
        </mxCell>
        <mxCell id="LXfvspzgefDCmYC8P1NW-62" value="&lt;font style=&quot;font-size: 18px;&quot;&gt;Desc 1&lt;/font&gt;" style="text;html=1;align=center;verticalAlign=middle;resizable=0;points=[];autosize=1;strokeColor=none;fillColor=none;fontSize=13;" parent="1" vertex="1">
          <mxGeometry x="404" y="305" width="80" height="40" as="geometry" />
        </mxCell>
        <mxCell id="LXfvspzgefDCmYC8P1NW-63" value="&lt;font style=&quot;font-size: 18px;&quot;&gt;Desc 2&lt;/font&gt;" style="text;html=1;align=center;verticalAlign=middle;resizable=0;points=[];autosize=1;fontSize=13;" parent="1" vertex="1">
          <mxGeometry x="404" y="335" width="80" height="40" as="geometry" />
        </mxCell>
        <mxCell id="LXfvspzgefDCmYC8P1NW-64" value="&lt;font style=&quot;font-size: 18px;&quot;&gt;Desc n&lt;/font&gt;" style="text;html=1;align=center;verticalAlign=middle;resizable=0;points=[];autosize=1;strokeColor=none;fillColor=none;fontSize=13;" parent="1" vertex="1">
          <mxGeometry x="404" y="475" width="80" height="40" as="geometry" />
        </mxCell>
        <mxCell id="LXfvspzgefDCmYC8P1NW-65" value="" style="shape=curlyBracket;whiteSpace=wrap;html=1;rounded=1;flipH=1;labelPosition=right;verticalLabelPosition=middle;align=left;verticalAlign=middle;fontSize=18;direction=north;" parent="1" vertex="1">
          <mxGeometry x="10" y="530" width="400" height="20" as="geometry" />
        </mxCell>
        <mxCell id="LXfvspzgefDCmYC8P1NW-66" value="256" style="text;html=1;align=center;verticalAlign=middle;resizable=0;points=[];autosize=1;strokeColor=none;fillColor=none;fontSize=18;" parent="1" vertex="1">
          <mxGeometry x="185" y="550" width="50" height="40" as="geometry" />
        </mxCell>
        <mxCell id="LXfvspzgefDCmYC8P1NW-68" style="edgeStyle=orthogonalEdgeStyle;rounded=0;orthogonalLoop=1;jettySize=auto;html=1;fontSize=18;" parent="1" source="LXfvspzgefDCmYC8P1NW-78" target="XwjPzvXQHUQgldl_u9t0-1" edge="1">
          <mxGeometry relative="1" as="geometry">
            <mxPoint x="10" y="352.68000000000006" as="targetPoint" />
            <mxPoint x="-140" y="352" as="sourcePoint" />
            <Array as="points">
              <mxPoint x="-20" y="350" />
              <mxPoint x="-20" y="350" />
            </Array>
          </mxGeometry>
        </mxCell>
        <mxCell id="LXfvspzgefDCmYC8P1NW-69" style="edgeStyle=orthogonalEdgeStyle;rounded=0;orthogonalLoop=1;jettySize=auto;html=1;fontSize=18;" parent="1" source="LXfvspzgefDCmYC8P1NW-77" target="XwjPzvXQHUQgldl_u9t0-1" edge="1">
          <mxGeometry relative="1" as="geometry">
            <mxPoint x="10" y="332" as="targetPoint" />
            <mxPoint x="-40" y="330" as="sourcePoint" />
            <Array as="points">
              <mxPoint x="-10" y="325" />
              <mxPoint x="-10" y="325" />
            </Array>
          </mxGeometry>
        </mxCell>
        <mxCell id="LXfvspzgefDCmYC8P1NW-74" style="edgeStyle=orthogonalEdgeStyle;rounded=0;orthogonalLoop=1;jettySize=auto;html=1;fontSize=18;strokeWidth=3;" parent="1" source="LXfvspzgefDCmYC8P1NW-82" target="XwjPzvXQHUQgldl_u9t0-1" edge="1">
          <mxGeometry relative="1" as="geometry">
            <mxPoint x="10" y="479.6" as="targetPoint" />
            <mxPoint x="-140" y="479.6" as="sourcePoint" />
            <Array as="points">
              <mxPoint y="485" />
              <mxPoint y="485" />
            </Array>
          </mxGeometry>
        </mxCell>
        <mxCell id="LXfvspzgefDCmYC8P1NW-75" style="edgeStyle=orthogonalEdgeStyle;rounded=0;orthogonalLoop=1;jettySize=auto;html=1;fontSize=18;" parent="1" source="LXfvspzgefDCmYC8P1NW-81" target="XwjPzvXQHUQgldl_u9t0-1" edge="1">
          <mxGeometry relative="1" as="geometry">
            <mxPoint x="10" y="460.2800000000001" as="targetPoint" />
            <mxPoint x="-140" y="459.6" as="sourcePoint" />
            <Array as="points">
              <mxPoint x="-30" y="465" />
              <mxPoint x="-30" y="465" />
            </Array>
          </mxGeometry>
        </mxCell>
        <mxCell id="LXfvspzgefDCmYC8P1NW-76" style="edgeStyle=orthogonalEdgeStyle;rounded=0;orthogonalLoop=1;jettySize=auto;html=1;fontSize=18;" parent="1" source="LXfvspzgefDCmYC8P1NW-80" target="XwjPzvXQHUQgldl_u9t0-1" edge="1">
          <mxGeometry relative="1" as="geometry">
            <mxPoint x="10" y="439.6" as="targetPoint" />
            <mxPoint x="-140" y="439.1" as="sourcePoint" />
            <Array as="points">
              <mxPoint x="-20" y="440" />
              <mxPoint x="-20" y="440" />
            </Array>
          </mxGeometry>
        </mxCell>
        <mxCell id="LXfvspzgefDCmYC8P1NW-77" value="Addr" style="text;html=1;align=center;verticalAlign=middle;resizable=0;points=[];autosize=1;strokeColor=none;fillColor=none;fontSize=18;" parent="1" vertex="1">
          <mxGeometry x="-100" y="305" width="60" height="40" as="geometry" />
        </mxCell>
        <mxCell id="LXfvspzgefDCmYC8P1NW-78" value="WE" style="text;html=1;align=center;verticalAlign=middle;resizable=0;points=[];autosize=1;strokeColor=none;fillColor=none;fontSize=18;" parent="1" vertex="1">
          <mxGeometry x="-100" y="330" width="50" height="40" as="geometry" />
        </mxCell>
        <mxCell id="LXfvspzgefDCmYC8P1NW-79" value="DataIn" style="text;html=1;align=center;verticalAlign=middle;resizable=0;points=[];autosize=1;strokeColor=none;fillColor=none;fontSize=18;" parent="1" vertex="1">
          <mxGeometry x="-100" y="350" width="80" height="40" as="geometry" />
        </mxCell>
        <mxCell id="LXfvspzgefDCmYC8P1NW-80" value="Addr" style="text;html=1;align=center;verticalAlign=middle;resizable=0;points=[];autosize=1;strokeColor=none;fillColor=none;fontSize=18;" parent="1" vertex="1">
          <mxGeometry x="-100" y="425" width="60" height="40" as="geometry" />
        </mxCell>
        <mxCell id="LXfvspzgefDCmYC8P1NW-81" value="WE" style="text;html=1;align=center;verticalAlign=middle;resizable=0;points=[];autosize=1;strokeColor=none;fillColor=none;fontSize=18;" parent="1" vertex="1">
          <mxGeometry x="-100" y="450" width="50" height="40" as="geometry" />
        </mxCell>
        <mxCell id="LXfvspzgefDCmYC8P1NW-82" value="DataIn" style="text;html=1;align=center;verticalAlign=middle;resizable=0;points=[];autosize=1;strokeColor=none;fillColor=none;fontSize=18;" parent="1" vertex="1">
          <mxGeometry x="-100" y="470" width="80" height="40" as="geometry" />
        </mxCell>
        <mxCell id="LXfvspzgefDCmYC8P1NW-83" value="" style="shape=curlyBracket;whiteSpace=wrap;html=1;rounded=1;labelPosition=left;verticalLabelPosition=middle;align=right;verticalAlign=middle;fontSize=18;" parent="1" vertex="1">
          <mxGeometry x="-110" y="315" width="20" height="65" as="geometry" />
        </mxCell>
        <mxCell id="LXfvspzgefDCmYC8P1NW-84" value="Port A" style="text;html=1;align=center;verticalAlign=middle;resizable=0;points=[];autosize=1;strokeColor=none;fillColor=none;fontSize=18;" parent="1" vertex="1">
          <mxGeometry x="-170" y="327.5" width="70" height="40" as="geometry" />
        </mxCell>
        <mxCell id="LXfvspzgefDCmYC8P1NW-85" value="Port B" style="text;html=1;align=center;verticalAlign=middle;resizable=0;points=[];autosize=1;strokeColor=none;fillColor=none;fontSize=18;" parent="1" vertex="1">
          <mxGeometry x="-170" y="450" width="70" height="40" as="geometry" />
        </mxCell>
        <mxCell id="LXfvspzgefDCmYC8P1NW-86" value="" style="shape=curlyBracket;whiteSpace=wrap;html=1;rounded=1;labelPosition=left;verticalLabelPosition=middle;align=right;verticalAlign=middle;fontSize=18;" parent="1" vertex="1">
          <mxGeometry x="-110" y="437.5" width="20" height="65" as="geometry" />
        </mxCell>
        <mxCell id="LXfvspzgefDCmYC8P1NW-88" style="edgeStyle=orthogonalEdgeStyle;rounded=0;orthogonalLoop=1;jettySize=auto;html=1;strokeWidth=3;fontSize=18;" parent="1" source="XwjPzvXQHUQgldl_u9t0-1" target="LXfvspzgefDCmYC8P1NW-87" edge="1">
          <mxGeometry relative="1" as="geometry">
            <Array as="points">
              <mxPoint x="430" y="440" />
              <mxPoint x="430" y="440" />
            </Array>
          </mxGeometry>
        </mxCell>
        <mxCell id="LXfvspzgefDCmYC8P1NW-87" value="DataOut B" style="text;html=1;align=center;verticalAlign=middle;resizable=0;points=[];autosize=1;strokeColor=none;fillColor=none;fontSize=18;" parent="1" vertex="1">
          <mxGeometry x="455" y="420" width="110" height="40" as="geometry" />
        </mxCell>
        <mxCell id="LXfvspzgefDCmYC8P1NW-89" style="edgeStyle=orthogonalEdgeStyle;rounded=0;orthogonalLoop=1;jettySize=auto;html=1;strokeWidth=3;fontSize=18;fillColor=#ffe6cc;strokeColor=#000000;" parent="1" source="XwjPzvXQHUQgldl_u9t0-1" target="LXfvspzgefDCmYC8P1NW-90" edge="1">
          <mxGeometry relative="1" as="geometry">
            <mxPoint x="410" y="400" as="sourcePoint" />
            <Array as="points" />
          </mxGeometry>
        </mxCell>
        <mxCell id="LXfvspzgefDCmYC8P1NW-90" value="DataOut A" style="text;html=1;align=center;verticalAlign=middle;resizable=0;points=[];autosize=1;strokeColor=none;fillColor=none;fontSize=18;" parent="1" vertex="1">
          <mxGeometry x="455" y="375" width="110" height="40" as="geometry" />
        </mxCell>
      </root>
    </mxGraphModel>
  </diagram>
</mxfile>
